<svg xmlns="http://www.w3.org/2000/svg" viewBox="0 0 720 214.456">
  <g id="full-rgb">
    <path id="type" d="M271.9432,63.7117h30.5024V50.8206H271.9432V32.6749h33.0807V19.7856H257.7648V94.9673h14.1784Zm63.9047,32.114q7.1919,0,10.7385-2.5764a14.7482,14.7482,0,0,0,4.8358-5.265h1.9337v6.9832h13.3167V41.6954H353.1405V68.7615q0,7.4113-3.4382,11.545t-9.6648,4.1362q-5.4778,0-8.4309-3.0091-2.9549-3.0039-2.9556-9.022V41.6954H315.1189V73.4887a25.1679,25.1679,0,0,0,2.58,11.6,19.3145,19.3145,0,0,0,7.2487,7.8931A20.54,20.54,0,0,0,335.8479,95.8257Zm59.3936-76.0433H381.7077V94.9657h13.5338Zm28.5705,0H410.2764V94.9657H423.812Zm254.84.0036H665.1193V94.9676h13.5322ZM272.3723,117.7905,252.61,192.9738h14.6058l4.0827-16.5412h26.8506l4.081,16.5412h14.6076l-19.7622-75.1833Zm2.2559,45.5391,9.1272-36.624h1.9354L294.82,163.33ZM720,42.2865H702.8866l-23.9432,23.945,24.4137,28.7342h16.6L696.0551,66.2315ZM501.7185,94.8545l26.8506.1121V83.7973H518.258a13.224,13.224,0,0,0-3.0074.2619V52.8657h13.3185V41.6928H515.2506V25.1534H501.7185V41.6928h-13.32V52.8657h13.32Zm143.5608,46.0809a19.1488,19.1488,0,0,0-8.9669-2.094q-6.1242,0-9.4529,2.256a15.6793,15.6793,0,0,0-5.1565,5.6924H619.77a14.7594,14.7594,0,0,0-5.2616-5.7475,16.7431,16.7431,0,0,0-9.1289-2.2009,16.0054,16.0054,0,0,0-8.4843,1.9871,12.2738,12.2738,0,0,0-4.62,4.6705h-1.9319v-5.7975H577.0257v53.272h13.5321V161.5059q0-5.48,2.5214-8.4326a8.8881,8.8881,0,0,1,7.1434-2.9539,8.6867,8.6867,0,0,1,6.3352,2.2008q2.2569,2.205,2.2594,6.6057v34.0476h13.53V161.5059q0-5.48,2.5249-8.4326a8.882,8.882,0,0,1,7.1417-2.9539,8.6993,8.6993,0,0,1,6.3369,2.2008q2.2568,2.205,2.2577,6.6057v34.0476h13.53V157.9608a21.3565,21.3565,0,0,0-2.4162-10.6868A15.67,15.67,0,0,0,645.2793,140.9354ZM360.9265,179.2811q-3.1719,3.1666-9.2908,3.1676a15.226,15.226,0,0,1-7.3572-1.77,12.6022,12.6022,0,0,1-5.1564-5.265,17.7851,17.7851,0,0,1-1.8786-8.5376v-1.0755a17.7837,17.7837,0,0,1,1.8786-8.536A12.5533,12.5533,0,0,1,344.2785,152a15.17,15.17,0,0,1,7.3572-1.7717,14.0455,14.0455,0,0,1,6.8194,1.5029,10.818,10.818,0,0,1,4.2413,4.0809,15.5176,15.5176,0,0,1,1.9355,5.8011l13.1029-2.7919a25.6136,25.6136,0,0,0-4.4567-10.5817,23.5111,23.5111,0,0,0-8.8635-7.3572,29.5124,29.5124,0,0,0-13.1012-2.685A30.2612,30.2612,0,0,0,337.297,141.42a24.2336,24.2336,0,0,0-9.9337,9.3425,28.422,28.422,0,0,0-3.6536,14.823V167.09a28.4155,28.4155,0,0,0,3.6536,14.8213,24.2276,24.2276,0,0,0,9.9337,9.3443,30.24,30.24,0,0,0,14.0164,3.2227,29.5389,29.5389,0,0,0,13.1012-2.6833,23.5039,23.5039,0,0,0,8.8635-7.3607,29.4581,29.4581,0,0,0,4.7773-10.3611l-13.1013-3.1159A14.895,14.895,0,0,1,360.9265,179.2811Zm342.7009-12.5133q0,7.4088-3.4365,11.5468-3.4383,4.1335-9.6683,4.1344-5.4778,0-8.4292-3.0091-2.9547-3.0037-2.9539-9.022V139.7018H665.6057v31.79a25.1624,25.1624,0,0,0,2.5781,11.6019,19.3132,19.3132,0,0,0,7.2521,7.8932,20.526,20.526,0,0,0,10.9006,2.8454,22.6825,22.6825,0,0,0,7.9448-1.1788,13.7851,13.7851,0,0,0,4.9427-3.0091,13.2493,13.2493,0,0,0,2.6851-3.6536h1.9354v16.636l-32.0071.0155V214.456h45.3238V139.7018H703.6274Zm-149.9494-25.08a25.9613,25.9613,0,0,0-13.6407-3.49,27.99,27.99,0,0,0-13.963,3.3831,23.5534,23.5534,0,0,0-9.3443,9.5579,30.2178,30.2178,0,0,0-3.3313,14.5541v1.2891a29.8365,29.8365,0,0,0,3.383,14.5541,23.814,23.814,0,0,0,9.4529,9.558,28.288,28.288,0,0,0,14.0164,3.3831A27.408,27.408,0,0,0,552.28,192.17a23.5561,23.5561,0,0,0,7.5708-5.5856,34.4987,34.4987,0,0,0,4.35-6.0681l-11.0608-5.801a17.45,17.45,0,0,1-4.0828,5.477q-2.6884,2.4739-8.3773,2.47a13.7007,13.7007,0,0,1-9.45-3.4365,12.0274,12.0274,0,0,1-4.0827-8.9134h38.7731v-4.6187a30.5574,30.5574,0,0,0-3.2246-14.3387A24.0084,24.0084,0,0,0,553.678,141.6876ZM527.2549,160.216a12.0039,12.0039,0,0,1,3.9758-7.4124q3.2184-2.7918,8.6963-2.7919a12.7215,12.7215,0,0,1,8.543,2.7919,10.658,10.658,0,0,1,3.7035,7.4124ZM637.7461,81.2745q-3.1721,3.1668-9.2909,3.1694a15.2284,15.2284,0,0,1-7.3572-1.7717,12.6028,12.6028,0,0,1-5.1564-5.265,17.7941,17.7941,0,0,1-1.8785-8.54V67.7959a17.7868,17.7868,0,0,1,1.8785-8.5378,12.5631,12.5631,0,0,1,5.1564-5.265,15.1711,15.1711,0,0,1,7.3572-1.7734,14.0456,14.0456,0,0,1,6.82,1.5045,10.8316,10.8316,0,0,1,4.2413,4.0811,15.5033,15.5033,0,0,1,1.9354,5.8009l13.103-2.7936a25.6362,25.6362,0,0,0-4.4567-10.5817,23.5234,23.5234,0,0,0-8.8635-7.3555A29.5141,29.5141,0,0,0,628.133,40.19a30.2838,30.2838,0,0,0-14.0182,3.221,24.279,24.279,0,0,0-9.9355,9.346,28.4392,28.4392,0,0,0-3.65,14.8212v1.5045a28.444,28.444,0,0,0,3.65,14.8214,24.2531,24.2531,0,0,0,9.9355,9.3442A30.2839,30.2839,0,0,0,628.133,96.47a29.5157,29.5157,0,0,0,13.1012-2.6833,23.486,23.486,0,0,0,8.8635-7.359,29.453,29.453,0,0,0,4.7772-10.3628L641.772,72.9488A14.8984,14.8984,0,0,1,637.7461,81.2745Zm-147.56,64.55h-1.9319a13.2912,13.2912,0,0,0-3.1159-3.6537,16.5835,16.5835,0,0,0-5.3185-2.8454,25.1624,25.1624,0,0,0-8.1085-1.1288,23.04,23.04,0,0,0-20.7291,12.46,30.65,30.65,0,0,0-3.33,14.8213v1.7183a30.656,30.656,0,0,0,3.33,14.8228,23.12,23.12,0,0,0,8.8635,9.2909,23.5047,23.5047,0,0,0,11.8656,3.1676q7.3028,0,11.1159-2.47a17.6746,17.6746,0,0,0,5.6407-5.4787h1.9336v6.4438h13.3167V117.79H490.1865Zm.2154,21.0512q0,7.7269-4.19,11.7606a15.4878,15.4878,0,0,1-20.8359,0q-4.1879-4.0329-4.19-11.7606V165.8q0-7.7319,4.19-11.76a15.5538,15.5538,0,0,1,20.8911,0q4.131,4.0275,4.1344,11.76Zm103.8989-71.91V83.7981h-7.03a14.6115,14.6115,0,0,1-.2723-3.2262V60.7045q0-9.9863-6.1232-15.25-6.1189-5.2606-16.6464-5.2632a28.9624,28.9624,0,0,0-11.6553,2.0957,20.4881,20.4881,0,0,0-7.6244,5.4751,21.6024,21.6024,0,0,0-4.1362,7.4659L553.27,59.4171a10.9528,10.9528,0,0,1,3.2244-5.9629q2.4714-2.306,7.5193-2.3094,5.1546,0,7.5175,2.418a8.4733,8.4733,0,0,1,2.3627,6.1766v3.0091H559.2882A28.4631,28.4631,0,0,0,548.6,64.6253a16.035,16.035,0,0,0-7.3038,5.5855,15.4655,15.4655,0,0,0-2.6317,9.1822,15.9526,15.9526,0,0,0,2.6317,9.2892,16.5806,16.5806,0,0,0,7.1452,5.8027A25.0669,25.0669,0,0,0,558.6436,96.47a19.9233,19.9233,0,0,0,8.8066-1.6114,12.5937,12.5937,0,0,0,4.7256-3.7052,13.9321,13.9321,0,0,0,1.932-3.3847H576.15v.112l.3256,6.9728s6.1544.112,8.8049.112ZM573.894,73.9144a10.679,10.679,0,0,1-3.5985,8.4326,13.535,13.535,0,0,1-9.289,3.171q-4.2966,0-6.5524-1.8268a5.8074,5.8074,0,0,1-2.2576-4.7255,5.3044,5.3044,0,0,1,2.1507-4.5119,9.64,9.64,0,0,1,5.9061-1.6131H573.894Zm-96.65,17.9916q6.0672-4.5653,6.0681-12.9444,0-5.5788-2.8454-8.8566a18.2344,18.2344,0,0,0-7.7347-5.0513,66.1612,66.1612,0,0,0-10.9-2.8436l-3.0073-.5394a17.9725,17.9725,0,0,1-5.8027-1.88,4.093,4.093,0,0,1-2.1456-3.81,4.219,4.219,0,0,1,2.0405-3.7087,10.7826,10.7826,0,0,1,5.9078-1.3409,11.6343,11.6343,0,0,1,6.4972,1.72,8.6674,8.6674,0,0,1,3.49,5.7993l12.5652-3.8674a18.2994,18.2994,0,0,0-7.7311-10.4162q-5.907-3.9732-14.8213-3.9759-9.4538,0-15.2537,4.243-5.7958,4.2472-5.7993,12.1914a12.9241,12.9241,0,0,0,2.7936,8.5928,18.5415,18.5415,0,0,0,7.4106,5.2065,54.0917,54.0917,0,0,0,10.2025,2.9539l3.0091.5377a20.6532,20.6532,0,0,1,6.8747,2.2024,4.2549,4.2549,0,0,1,2.1473,3.81,4.9748,4.9748,0,0,1-2.256,4.1363q-2.2568,1.6674-6.9814,1.6664a17.4229,17.4229,0,0,1-5.7458-.9133,9.7319,9.7319,0,0,1-4.4034-3.0608,13.21,13.21,0,0,1-2.5247-5.9061l-12.4585,3.2228a18.5439,18.5439,0,0,0,8.0552,12.8875q6.6567,4.5085,17.0772,4.5085Q471.1751,96.47,477.2442,91.906ZM434.11,178.4211V158.55q0-9.9888-6.1216-15.2521-6.1214-5.2581-16.648-5.2632a28.9974,28.9974,0,0,0-11.6537,2.0955,20.4931,20.4931,0,0,0-7.6243,5.4771,21.5915,21.5915,0,0,0-4.1361,7.464l12.46,4.1913a10.9319,10.9319,0,0,1,3.221-5.963q2.4714-2.3058,7.5192-2.3093,5.1522,0,7.5175,2.4179a8.4719,8.4719,0,0,1,2.3628,6.1749v3.0074H406.4015a28.53,28.53,0,0,0-10.6885,1.8785,16.07,16.07,0,0,0-7.3038,5.5855,15.4575,15.4575,0,0,0-2.6316,9.1823,15.9461,15.9461,0,0,0,2.6316,9.2909,16.58,16.58,0,0,0,7.1452,5.8026,25.0959,25.0959,0,0,0,10.2026,1.9854,19.9372,19.9372,0,0,0,8.8049-1.6113,12.6183,12.6183,0,0,0,4.7272-3.7054,14.08,14.08,0,0,0,1.9354-3.3847h2.0388v.11l.3274,6.9746s6.1526.112,8.8014.112h9.022V181.6421h-7.0314A14.5646,14.5646,0,0,1,434.11,178.4211Zm-13.103-6.661a10.6837,10.6837,0,0,1-3.5968,8.431A13.5366,13.5366,0,0,1,408.12,183.36q-4.2964,0-6.5524-1.8234a5.8022,5.8022,0,0,1-2.2559-4.7273,5.3072,5.3072,0,0,1,2.149-4.5118,9.6426,9.6426,0,0,1,5.9061-1.61h13.6408Z"/>
    <path id="logoMark" d="M84.9016,148.1763l22.325-22.3232,22.3249,22.3232-22.3249,22.3249ZM43.976,107.2024,107.2266,43.95l63.2918,63.2919L151.6765,126.084l-44.45-44.45L62.818,126.0461ZM107.2266,0,0,107.2266,107.2266,214.4548,214.4548,107.2266Z" style="fill: #ed1f24"/>
  </g>
</svg>
